<svg xmlns="http://www.w3.org/2000/svg" xmlns:xlink="http://www.w3.org/1999/xlink" width="400" height="400" viewBox="0 0 400 400"><defs><linearGradient id="gradient-8" x1="0%" y1="0%" x2="100%" y2="0%">       <stop offset="0%" stop-color="#ad5389"/>       <stop offset="100%" stop-color="#3c1053"/>     </linearGradient></defs>
<rect data-name="background" width="100%" height="100%" fill="#ffffff"/><g data-name="watermark" class="watermark-logodesign" stroke="#ffffff" transform="translate(10, 320) scale(1.5) rotate(-45)" style="opacity:0.040000010281801224;"><path fill="#000000" d="M22.92,19.2q3.04,1.68,4.8,4.7t1.76,6.78t-1.76,6.78t-4.8,4.7t-6.68,1.68t-6.7-1.68t-4.84-4.7t-1.78-6.78t1.78-6.78t4.84-4.7t6.7-1.68t6.68,1.68z M11.14,21.74q-2.26,1.3-3.54,3.62t-1.28,5.32t1.28,5.32t3.54,3.6t5.1,1.28t5.08-1.28t3.52-3.6t1.28-5.32t-1.28-5.32t-3.54-3.62t-5.06-1.3q-2.84,0-5.1,1.3z M21.4,24.76l-1.8,2.32q-0.72-0.56-1.4-0.78t-1.48-0.22q-1.44,0-2.3,1.1t-0.86,3.46q0,2.32,0.82,3.44t2.26,1.12q0.96,0,1.74-0.3t1.54-0.9l1.64,2.44q-2.24,2.04-5.2,2.04q-3.2,0-5.08-2.04t-1.88-5.8q0-2.4,0.9-4.16t2.48-2.7t3.54-0.94q2.92,0,5.08,1.92z M41.2,20.32l0,22.96l10.96,0l-0.64,4.72l-16.2,0l0-27.68l5.88,0z M71.92,29.14q2.68,2.98,2.68,8.26q0,3.36-1.22,5.9t-3.52,3.94t-5.42,1.4q-4.76,0-7.46-2.98t-2.7-8.26q0-3.36,1.22-5.9t3.52-3.94t5.46-1.4q4.76,0,7.44,2.98z M61.26,32.1q-1.06,1.7-1.06,5.3t1.06,5.3t3.18,1.7t3.18-1.7t1.06-5.3t-1.04-5.3t-3.16-1.7q-2.16,0-3.22,1.7z M97.88,27.96q-2.08,0.8-6.12,0.8q2,0.88,2.96,2.18t0.96,3.26q0,2.04-1.06,3.66t-3.04,2.54t-4.62,0.92q-1.4,0-2.48-0.28q-0.8,0.52-0.8,1.4q0,0.64,0.5,1.02t1.94,0.38l3.24,0q2.36,0,4.14,0.78t2.76,2.16t0.98,3.14q0,3.24-2.78,5.06t-8.02,1.82q-3.76,0-5.94-0.78t-3.06-2.26t-0.88-3.72l5.08,0q0,1.04,0.4,1.66t1.46,0.92t3.06,0.3q2.76,0,3.86-0.68t1.1-1.92q0-1.12-0.84-1.72t-2.48-0.6l-3.12,0q-3.16,0-4.72-1.18t-1.56-2.98q0-1.12,0.66-2.18t1.82-1.78q-1.96-1.08-2.86-2.54t-0.9-3.5q0-2.32,1.14-4.06t3.2-2.68t4.7-0.94q3.28,0.08,5.4-0.56t4.52-2z M84.14,30.98q-0.94,1.02-0.94,2.78q0,1.8,0.94,2.84t2.58,1.04q1.72,0,2.6-1t0.88-2.96q0-3.72-3.52-3.72q-1.6,0-2.54,1.02z M117.04,29.14q2.68,2.98,2.68,8.26q0,3.36-1.22,5.9t-3.52,3.94t-5.42,1.4q-4.76,0-7.46-2.98t-2.7-8.26q0-3.36,1.22-5.9t3.52-3.94t5.46-1.4q4.76,0,7.44,2.98z M106.38,32.1q-1.06,1.7-1.06,5.3t1.06,5.3t3.18,1.7t3.18-1.7t1.06-5.3t-1.04-5.3t-3.16-1.7q-2.16,0-3.22,1.7z M141.78,23.26q3.9,2.94,3.9,10.78q0,7.68-3.82,10.82t-9.78,3.14l-7.92,0l0-27.68l7.24,0q6.48,0,10.38,2.94z M130.04,24.64l0,19.04l2.4,0q3.4,0,5.26-2.1t1.86-7.54q0-3.76-0.94-5.84t-2.5-2.82t-3.8-0.74l-2.28,0z M167.84,39.12l-13.24,0q0.28,2.88,1.56,4.08t3.48,1.2q1.36,0,2.56-0.44t2.6-1.4l2.36,3.2q-3.56,2.88-8.04,2.88q-5,0-7.68-3t-2.68-8.12q0-3.24,1.14-5.82t3.32-4.06t5.18-1.48q4.52,0,7.04,2.84t2.52,7.92q0,0.4-0.12,2.2z M162.32,35.32q0-5.28-3.8-5.28q-1.76,0-2.74,1.3t-1.18,4.22l7.72,0l0-0.24z M186.8,28.72l-2.16,3.24q-2.68-1.68-5.28-1.68q-1.4,0-2.16,0.52t-0.76,1.4q0,0.64,0.34,1.08t1.28,0.84t2.82,0.96q3.36,0.92,5,2.46t1.64,4.22q0,2.12-1.22,3.68t-3.3,2.38t-4.64,0.82q-2.68,0-4.88-0.82t-3.76-2.26l2.8-3.12q2.68,2.08,5.68,2.08q1.6,0,2.54-0.62t0.94-1.7q0-0.84-0.36-1.32t-1.32-0.9t-3-0.98q-3.2-0.88-4.74-2.5t-1.54-4.02q0-1.8,1.04-3.24t2.94-2.26t4.42-0.82q4.48,0,7.68,2.56z M196.92,26.8l0,21.2l-5.68,0l0-21.2l5.68,0z M196.54,16.82q0.98,0.94,0.98,2.38t-0.98,2.38t-2.5,0.94t-2.48-0.94t-0.96-2.38t0.96-2.38t2.48-0.94t2.5,0.94z M221.48,27.96q-2.08,0.8-6.12,0.8q2,0.88,2.96,2.18t0.96,3.26q0,2.04-1.06,3.66t-3.04,2.54t-4.62,0.92q-1.4,0-2.48-0.28q-0.8,0.52-0.8,1.4q0,0.64,0.5,1.02t1.94,0.38l3.24,0q2.36,0,4.14,0.78t2.76,2.16t0.98,3.14q0,3.24-2.78,5.06t-8.02,1.82q-3.76,0-5.94-0.78t-3.06-2.26t-0.88-3.72l5.08,0q0,1.04,0.4,1.66t1.46,0.92t3.06,0.3q2.76,0,3.86-0.68t1.1-1.92q0-1.12-0.84-1.72t-2.48-0.6l-3.12,0q-3.16,0-4.72-1.18t-1.56-2.98q0-1.12,0.66-2.18t1.82-1.78q-1.96-1.08-2.86-2.54t-0.9-3.5q0-2.32,1.14-4.06t3.2-2.68t4.7-0.94q3.28,0.08,5.4-0.56t4.52-2z M207.74,30.98q-0.94,1.02-0.94,2.78q0,1.8,0.94,2.84t2.58,1.04q1.72,0,2.6-1t0.88-2.96q0-3.72-3.52-3.72q-1.6,0-2.54,1.02z M240.48,27.86q1.56,1.7,1.56,4.7l0,15.44l-5.68,0l0-14.48q0-1.72-0.58-2.42t-1.74-0.7q-1.2,0-2.18,0.74t-1.9,2.22l0,14.64l-5.68,0l0-21.2l4.92,0l0.44,2.68q1.32-1.64,2.9-2.48t3.58-0.84q2.8,0,4.36,1.7z M251.84,42.8q1,1,1,2.4t-1,2.42t-2.44,1.02q-1.4,0-2.4-1.02t-1-2.42t1-2.4t2.4-1q1.44,0,2.44,1z M271.8,48l-1.56-6.2l-8.68,0l-1.56,6.2l-6.12,0l8.52-27.68l7.16,0l8.48,27.68l-6.24,0z M262.68,37.44l6.44,0l-3.24-12.76z M286.48,20.32l0,27.68l-5.88,0l0-27.68l5.88,0z"/></g><g data-name="container" data="container_num:2" fill="url(#gradient-8)" transform="translate(44.900000000000006,24.141845294687585) scale(6.254030526491142)"><path xmlns="http://www.w3.org/2000/svg" d="M23.11 55.78L1.69 43.41A3.39 3.39 0 0 1 0 40.48V15.75a3.39 3.39 0 0 1 1.69-2.94L23.11.45a3.39 3.39 0 0 1 3.39 0l21.41 12.37a3.39 3.39 0 0 1 1.69 2.94v24.72a3.39 3.39 0 0 1-1.69 2.94L26.5 55.78a3.39 3.39 0 0 1-3.39 0z"/></g><g data-name="business_name" fill="#ffffff" data="id:98" transform="translate(108.66901129484492,110.17613600602702) scale(3.3491372789732425)"><path d="M3.68,40.84q-0.04-0.4,0-0.8q1.4-0.12,2.02-0.24t0.76-0.58t0.14-1.5l0-21.48q0-1.2-0.16-1.72t-0.74-0.7t-1.94-0.26q-0.04-0.4,0-0.8q0.96,0,1.54,0.02t1.46,0.04t2.64,0.02q1.64,0,3.6-0.02t3.74-0.02t2.94-0.02t1.2-0.02q0.16,1.12,0.32,2.32t0.4,2.52q-0.44,0.04-0.8,0q-0.4-1.12-0.76-1.72t-0.84-1q-1-0.84-3.32-0.84l-6.08,0l0,12.08l4.6,0q1.4,0,2.08-0.16t0.96-0.82t0.48-2.14q0.44-0.04,0.84,0q0,0.28-0.04,1.38t-0.04,2.46q0,1.24,0.04,2.42t0.04,1.54q-0.36,0.04-0.84,0q-0.16-1.68-0.44-2.38t-0.92-0.86t-1.92-0.16l-4.84,0l0,9.96q0,0.88,0.06,1.38t0.34,0.78t0.88,0.36t1.84,0.16q0.04,0.4,0,0.8q-0.6,0-1.5-0.02l-1.8-0.04t-1.46-0.02q-0.88,0-2.22,0.04t-2.26,0.04z M50.88,34q-0.16,1.28-0.34,2.98t-0.26,3.06q-1.8,0.36-4.18,0.8t-4.98,0.44q-4.76,0-8.18-1.78t-5.24-4.98t-1.82-7.48q0-4.32,1.84-7.62t5.26-5.18t8.22-1.88q1.28,0,2.68,0.14t3.16,0.46q0.68,0.12,1.32,0.24t1.36,0.12l0.26,0t0.38-0.04q0.04,1.28,0.14,3.12t0.18,3.32q-0.24,0.04-0.4,0.06t-0.36,0.02q-0.44-3.08-2.68-4.68t-6.16-1.6q-3.36,0-5.6,1.1t-3.56,2.96t-1.88,4.24t-0.56,4.9q0,2.72,0.62,5.14t2.06,4.26t3.8,2.9t5.84,1.06q3.96,0,5.8-1.52t2.44-4.56q0.08,0,0.18-0.02t0.22-0.02q0.08,0,0.2,0.02t0.24,0.02z"/></g></svg>